<?xml version="1.0" standalone="no"?><svg xmlns:xlink="http://www.w3.org/1999/xlink" xmlns="http://www.w3.org/2000/svg" viewBox="0 0 100 58.33418917531067" preserveAspectRatio="xMaxYMax slice"><g transform="scale(0.1369347163739687)"><rect x="0" y="0" width="730.2857142857142" height="426" fill="#ffffff"/><polygon points="0,0 60.86,0 0,60.86" fill="#f8fcfe"/><polygon points="60.86,0 121.72,0 60.86,60.86" fill="#f4fff9"/><polygon points="182.57,0 182.57,60.86 121.71,60.86" fill="#cbffe5"/><polygon points="182.57,0 243.43,60.86 182.57,60.86" fill="#c6e9f4"/><polygon points="243.43,0 304.29,0 243.43,60.86" fill="#acdeee"/><polygon points="304.29,0 365.15000000000003,0 365.15000000000003,60.86" fill="#bde5f2"/><polygon points="426,0 426,60.86 365.14,60.86" fill="#cbebf5"/><polygon points="426,0 486.86,0 426,60.86" fill="#d8eff7"/><polygon points="486.86,0 547.72,0 486.86,60.86" fill="#f9fffc"/><polygon points="547.71,0 608.57,0 547.71,60.86" fill="#92d4e9"/><polygon points="608.57,0 669.4300000000001,0 669.4300000000001,60.86" fill="#c6ffe2"/><polygon points="730.29,0 730.29,60.86 669.43,60.86" fill="#dbffed"/><polygon points="0,60.86 60.86,60.86 60.86,121.72" fill="#edf8fb"/><polygon points="60.86,60.86 121.72,60.86 60.86,121.72" fill="#e2f3f9"/><polygon points="121.71,60.86 182.57,60.86 182.57,121.72" fill="#bfe5f2"/><polygon points="182.57,60.86 243.43,60.86 182.57,121.72" fill="#eaf7fb"/><polygon points="243.43,60.86 304.29,60.86 304.29,121.72" fill="#e7f6fa"/><polygon points="304.29,60.86 365.15000000000003,121.72 304.29,121.72" fill="#c9eaf4"/><polygon points="365.14,60.86 426,60.86 365.14,121.72" fill="#caffe4"/><polygon points="426,60.86 486.86,60.86 486.86,121.72" fill="#bfffdf"/><polygon points="486.86,60.86 547.72,121.72 486.86,121.72" fill="#d6ffea"/><polygon points="547.71,60.86 608.57,60.86 547.71,121.72" fill="#a5dbed"/><polygon points="608.57,60.86 669.4300000000001,60.86 669.4300000000001,121.72" fill="#bbffdd"/><polygon points="669.43,60.86 730.29,121.72 669.43,121.72" fill="#afdfef"/><polygon points="0,121.71 60.86,121.71 60.86,182.57" fill="#aedfef"/><polygon points="60.86,121.71 121.72,121.71 121.72,182.57" fill="#b4e1f0"/><polygon points="121.71,121.71 182.57,121.71 121.71,182.57" fill="#c4ffe1"/><polygon points="243.43,121.71 243.43,182.57 182.57,182.57" fill="#e1fff0"/><polygon points="243.43,121.71 304.29,121.71 304.29,182.57" fill="#b9ffdc"/><polygon points="365.15000000000003,121.71 365.15000000000003,182.57 304.29,182.57" fill="#e4fff2"/><polygon points="365.14,121.71 426,121.71 426,182.57" fill="#b4e1f0"/><polygon points="426,121.71 486.86,121.71 426,182.57" fill="#a6dced"/><polygon points="486.86,121.71 547.72,121.71 486.86,182.57" fill="#f3fff9"/><polygon points="547.71,121.71 608.57,121.71 547.71,182.57" fill="#e5fff2"/><polygon points="608.57,121.71 669.4300000000001,121.71 669.4300000000001,182.57" fill="#dbffed"/><polygon points="730.29,121.71 730.29,182.57 669.43,182.57" fill="#a9ddee"/><polygon points="0,182.57 60.86,182.57 60.86,243.43" fill="#d0ecf6"/><polygon points="121.72,182.57 121.72,243.43 60.86,243.43" fill="#dbf1f8"/><polygon points="121.71,182.57 182.57,243.43 121.71,243.43" fill="#92d4e9"/><polygon points="182.57,182.57 243.43,182.57 243.43,243.43" fill="#d2edf6"/><polygon points="243.43,182.57 304.29,182.57 243.43,243.43" fill="#abdeee"/><polygon points="304.29,182.57 365.15000000000003,182.57 365.15000000000003,243.43" fill="#bdffde"/><polygon points="365.14,182.57 426,182.57 426,243.43" fill="#dcffee"/><polygon points="426,182.57 486.86,243.43 426,243.43" fill="#caffe5"/><polygon points="547.72,182.57 547.72,243.43 486.86,243.43" fill="#f1fff8"/><polygon points="547.71,182.57 608.57,182.57 608.57,243.43" fill="#b5e2f0"/><polygon points="669.4300000000001,182.57 669.4300000000001,243.43 608.57,243.43" fill="#dbf1f8"/><polygon points="730.29,182.57 730.29,243.43 669.43,243.43" fill="#9bd8eb"/><polygon points="0,243.43 60.86,304.29 0,304.29" fill="#f5fbfd"/><polygon points="60.86,243.43 121.72,243.43 60.86,304.29" fill="#bbe4f2"/><polygon points="121.71,243.43 182.57,304.29 121.71,304.29" fill="#fbfffd"/><polygon points="182.57,243.43 243.43,304.29 182.57,304.29" fill="#dbffed"/><polygon points="243.43,243.43 304.29,243.43 243.43,304.29" fill="#c8ffe3"/><polygon points="365.15000000000003,243.43 365.15000000000003,304.29 304.29,304.29" fill="#dbffed"/><polygon points="365.14,243.43 426,243.43 426,304.29" fill="#b7ffdb"/><polygon points="486.86,243.43 486.86,304.29 426,304.29" fill="#edf8fc"/><polygon points="486.86,243.43 547.72,243.43 547.72,304.29" fill="#ecf8fb"/><polygon points="547.71,243.43 608.57,304.29 547.71,304.29" fill="#ebf7fb"/><polygon points="608.57,243.43 669.4300000000001,243.43 608.57,304.29" fill="#dfffef"/><polygon points="730.29,243.43 730.29,304.29 669.43,304.29" fill="#e3f4f9"/><polygon points="60.86,304.29 60.86,365.15000000000003 0,365.15000000000003" fill="#d1ffe8"/><polygon points="60.86,304.29 121.72,304.29 60.86,365.15000000000003" fill="#9cd8eb"/><polygon points="121.71,304.29 182.57,304.29 182.57,365.15000000000003" fill="#ddffee"/><polygon points="182.57,304.29 243.43,304.29 182.57,365.15000000000003" fill="#97d6ea"/><polygon points="243.43,304.29 304.29,304.29 304.29,365.15000000000003" fill="#ecf8fb"/><polygon points="304.29,304.29 365.15000000000003,304.29 365.15000000000003,365.15000000000003" fill="#ccebf5"/><polygon points="365.14,304.29 426,365.15000000000003 365.14,365.15000000000003" fill="#cdebf5"/><polygon points="426,304.29 486.86,365.15000000000003 426,365.15000000000003" fill="#b9ffdc"/><polygon points="486.86,304.29 547.72,365.15000000000003 486.86,365.15000000000003" fill="#f5fbfd"/><polygon points="547.71,304.29 608.57,304.29 608.57,365.15000000000003" fill="#dff2f9"/><polygon points="608.57,304.29 669.4300000000001,304.29 608.57,365.15000000000003" fill="#fafffd"/><polygon points="730.29,304.29 730.29,365.15000000000003 669.43,365.15000000000003" fill="#9ad7eb"/><polygon points="0,365.14 60.86,365.14 60.86,426" fill="#c2ffe1"/><polygon points="121.72,365.14 121.72,426 60.86,426" fill="#f0fff8"/><polygon points="182.57,365.14 182.57,426 121.71,426" fill="#e3fff1"/><polygon points="182.57,365.14 243.43,365.14 182.57,426" fill="#c7e9f4"/><polygon points="304.29,365.14 304.29,426 243.43,426" fill="#d6ffea"/><polygon points="304.29,365.14 365.15000000000003,365.14 304.29,426" fill="#ddf2f8"/><polygon points="365.14,365.14 426,426 365.14,426" fill="#d9ffec"/><polygon points="426,365.14 486.86,426 426,426" fill="#e3f4f9"/><polygon points="486.86,365.14 547.72,365.14 486.86,426" fill="#feffff"/><polygon points="547.71,365.14 608.57,365.14 608.57,426" fill="#e6fff3"/><polygon points="608.57,365.14 669.4300000000001,426 608.57,426" fill="#c3e7f3"/><polygon points="669.43,365.14 730.29,365.14 669.43,426" fill="#f6fcfd"/></g></svg>