<?xml version="1.0" standalone="no"?><svg xmlns="http://www.w3.org/2000/svg" viewBox="0 0 1440 320"><path fill="#0099ff" fill-opacity="1" d="M0,32L26.7,74.7C53.3,117,107,203,160,213.3C213.3,224,267,160,320,160C373.3,160,427,224,480,256C533.3,288,587,288,640,250.7C693.3,213,747,139,800,117.3C853.3,96,907,128,960,170.7C1013.3,213,1067,267,1120,266.7C1173.3,267,1227,213,1280,165.3C1333.3,117,1387,75,1413,53.3L1440,32L1440,320L1413.3,320C1386.7,320,1333,320,1280,320C1226.7,320,1173,320,1120,320C1066.7,320,1013,320,960,320C906.7,320,853,320,800,320C746.7,320,693,320,640,320C586.7,320,533,320,480,320C426.7,320,373,320,320,320C266.7,320,213,320,160,320C106.7,320,53,320,27,320L0,320Z"></path></svg>